<?xml version="1.0" encoding="UTF-8"?>
<svg version="1.1" xmlns="http://www.w3.org/2000/svg" width="1536" height="1024">
<path d="M0 0 C506.88 0 1013.76 0 1536 0 C1536 337.92 1536 675.84 1536 1024 C1029.12 1024 522.24 1024 0 1024 C0 686.08 0 348.16 0 0 Z " fill="#F9F6EF" transform="translate(0,0)"/>
<path d="M0 0 C31.53511604 24.44461168 37.93314347 67.6546333 43.10546875 104.73046875 C43.25419434 105.77122559 43.40291992 106.81198242 43.55615234 107.88427734 C43.85350949 109.97166562 44.14019709 112.06060006 44.41650391 114.15087891 C45.93836322 124.66750892 49.65918191 132.07805409 56 140.5 C57.16623284 142.0813913 58.33157709 143.66343825 59.49609375 145.24609375 C60.08245605 146.03870605 60.66881836 146.83131836 61.27294922 147.64794922 C63.91893191 151.2514829 66.49313197 154.9041283 69.0625 158.5625 C69.55298828 159.25923828 70.04347656 159.95597656 70.54882812 160.67382812 C71.53827758 162.07934042 72.52737372 163.4851015 73.51611328 164.89111328 C76.00648776 168.43041153 78.50353375 171.9649973 81 175.5 C84.5721838 180.55859585 88.14091408 185.61958795 91.70507812 190.68383789 C93.21082816 192.8194426 94.72214978 194.95100869 96.234375 197.08203125 C97.97877887 199.54207261 99.69769871 202.01601312 101.390625 204.51171875 C102.08671875 205.51847656 102.7828125 206.52523437 103.5 207.5625 C104.0878125 208.43003906 104.675625 209.29757812 105.28125 210.19140625 C106.13203125 211.08666016 106.13203125 211.08666016 107 212 C111.41594728 212 111.53965449 211.86386211 114.5625 209.125 C125.61803847 200.1526539 141.27306464 191.7295684 155.67578125 190.75 C159.11477364 190.34777694 159.11477364 190.34777694 160.71484375 187.75390625 C161.11832031 186.70074219 161.52179688 185.64757812 161.9375 184.5625 C162.16711426 183.97428467 162.39672852 183.38606934 162.63330078 182.7800293 C169.83207144 165.27116157 169.83207144 165.27116157 173 147 C172.16855469 146.60167969 171.33710937 146.20335937 170.48046875 145.79296875 C169.39378906 145.26316406 168.30710937 144.73335937 167.1875 144.1875 C166.10855469 143.66542969 165.02960938 143.14335937 163.91796875 142.60546875 C160.01664745 140.45895864 158.41091656 139.23274968 157 135 C156.16750454 127.55651115 158.53971155 123.26818552 162.375 117 C162.91938721 116.08371826 163.46377441 115.16743652 164.0246582 114.22338867 C165.13739794 112.35919676 166.25854122 110.49999429 167.38818359 108.64599609 C168.84753112 106.25029653 170.28082672 103.8412915 171.70703125 101.42578125 C181.90866922 84.36028622 193.03494529 74.40660852 212 68 C212.78528076 67.72567139 213.57056152 67.45134277 214.37963867 67.16870117 C221.76950575 64.84566081 228.81060761 64.56811831 236.52514648 64.66381836 C238.56338966 64.68751034 240.60032459 64.68434206 242.63867188 64.67773438 C259.57464583 64.7689217 273.90153742 68.84092929 286.6875 80.4375 C287.450625 81.283125 288.21375 82.12875 289 83 C289.50402344 83.5465625 290.00804687 84.093125 290.52734375 84.65625 C292.97930643 87.38997856 294.80283536 89.49464072 296.15625 92.96362305 C298.60036615 96.9887121 300.43427075 97.30551245 304.9296875 98.5234375 C305.62947723 98.72061371 306.32926697 98.91778992 307.05026245 99.12094116 C308.56658089 99.54535594 310.08593231 99.95904968 311.60778809 100.36315918 C314.03506191 101.00933398 316.45183421 101.68617468 318.86816406 102.37207031 C324.82565453 104.05873038 330.79250095 105.71109112 336.76367188 107.34863281 C339.32576173 108.05249318 341.88563325 108.76399336 344.4453125 109.4765625 C345.21722931 109.68600494 345.98914612 109.89544739 346.78445435 110.11123657 C357.79419968 113.19129952 357.79419968 113.19129952 361 118 C361.38256014 122.97438962 360.68505356 126.72957877 358.953125 131.37890625 C358.52 132.54744141 358.086875 133.71597656 357.640625 134.91992188 C357.18171875 136.12197266 356.7228125 137.32402344 356.25 138.5625 C355.8065625 139.76841797 355.363125 140.97433594 354.90625 142.21679688 C351.14610278 152.23095365 347.09067837 160.2197287 337.40625 165.3828125 C327.5354245 169.81407018 317.30445205 171.56168509 306.625 172.70703125 C305.50311279 172.82933105 304.38122559 172.95163086 303.2253418 173.07763672 C300.97861504 173.31454031 298.72997928 173.53408708 296.47973633 173.73486328 C295.44099365 173.84169434 294.40225098 173.94852539 293.33203125 174.05859375 C292.40108643 174.14423584 291.4701416 174.22987793 290.51098633 174.31811523 C287.23463454 175.20784305 286.03477229 176.28781006 284 179 C279.78728483 191.50680908 280.52415058 205.36264403 280.625 218.375 C280.62965271 219.44157837 280.63430542 220.50815674 280.63909912 221.60705566 C280.73673964 240.69381046 282.20596121 258.91083586 285.53515625 277.7109375 C292.7542661 318.5714748 288.94842417 351.19896984 270.76928711 389.01245117 C263.9623349 403.60896712 263.32038575 419.02183454 262.41870117 434.83422852 C261.17758648 456.0072747 261.17758648 456.0072747 254.4375 464.0625 C250.31591963 467.33862798 246.19142675 467.29623324 241.1328125 467.55859375 C240.34166046 467.60084579 239.55050842 467.64309784 238.73538208 467.68663025 C229.11717636 468.15324493 219.50175727 468.10902728 209.875 468.0625 C208.02994916 468.05746598 206.18489695 468.05290649 204.33984375 468.04882812 C199.89319457 468.03799383 195.44661309 468.02083849 191 468 C191 471.96 191 475.92 191 480 C192.8253125 479.9071875 192.8253125 479.9071875 194.6875 479.8125 C198.61857111 479.82639071 200.89690046 480.42886038 204 483 C207.06090399 487.06907184 207.41851213 490.51481094 207.34057617 495.45239258 C207.34101425 496.1846405 207.34145233 496.91688843 207.34190369 497.67132568 C207.33982217 500.07933695 207.3165221 502.48664239 207.29296875 504.89453125 C207.28737051 506.56889974 207.28310149 508.24327315 207.28010559 509.91764832 C207.26867474 514.3153958 207.23922285 518.71284403 207.20599365 523.11047363 C207.17525473 527.6016027 207.1615921 532.09278033 207.14648438 536.58398438 C207.11435133 545.38945994 207.06317645 554.1946927 207 563 C200.73901526 559.36401556 197.30950228 554.92850685 195 548 C194.28714844 548.73476563 193.57429687 549.46953125 192.83984375 550.2265625 C184.28407977 558.58226047 174.75906052 564.05019553 164 569 C164 569.99 164 570.98 164 572 C164.7734375 572.27972656 165.546875 572.55945313 166.34375 572.84765625 C175.10632724 576.22038091 182.34404731 579.75996132 186.5 588.5625 C189.07592939 595.94985698 189.02125658 604.47445589 187 612 C170.63949259 611.62675648 154.33652437 611.18829463 138.02978516 609.73535156 C126.70512988 608.74638018 115.35959161 608.35941602 104 608 C100.01160729 598.85433908 96.63872462 589.5458332 93.32553101 580.14050293 C81.46586622 536.36076503 81.46586622 536.36076503 58.2714262 500.85181046 C55.30380288 499.73891822 52.82785485 499.74813915 49.65718079 499.74603271 C47.69953041 499.73757324 47.69953041 499.73757324 45.70233154 499.72894287 C44.25768988 499.73283151 42.81304876 499.73692785 41.3684082 499.74121094 C39.84549289 499.7385005 38.32257888 499.73493927 36.79966736 499.73059082 C32.66303557 499.72146692 28.52650348 499.7250121 24.38986993 499.73134899 C20.05655668 499.73641357 15.72325194 499.73171583 11.38993835 499.72857666 C4.10735545 499.72493641 -3.17518692 499.72973562 -10.45776367 499.73925781 C-18.8635162 499.75012206 -27.26917155 499.74663182 -35.67492169 499.735605 C-42.89887085 499.72650939 -50.12279085 499.72525857 -57.34674388 499.73048234 C-61.65788762 499.73359218 -65.96898581 499.73403897 -70.28012657 499.72740936 C-74.33898998 499.72160416 -78.39772913 499.72569056 -82.45657921 499.73719788 C-83.94119054 499.73982843 -85.42581243 499.739107 -86.91041946 499.73467255 C-94.58385765 499.71387751 -101.58580007 499.94242716 -109 502 C-109.01458252 500.72882324 -109.02916504 499.45764648 -109.04418945 498.14794922 C-109.10229807 493.41768708 -109.17953048 488.6878947 -109.26245117 483.95800781 C-109.29564141 481.9134892 -109.32369163 479.86888026 -109.34643555 477.82421875 C-109.38008993 474.87981794 -109.43241166 471.93624046 -109.48828125 468.9921875 C-109.49786613 467.6277803 -109.49786613 467.6277803 -109.50764465 466.23580933 C-109.66362108 459.45561606 -110.88507381 455.16892431 -115.75390625 450.17578125 C-121.6401758 446.23035148 -128.24572578 446.81452895 -135 448 C-141.92060838 449.84120602 -148.58839375 452.44007886 -155.2734375 454.98681641 C-159.14073224 456.42389316 -163.05502004 457.6707977 -167 458.875 C-168.19625 459.24367188 -169.3925 459.61234375 -170.625 459.9921875 C-174 461 -174 461 -177.6484375 461.34375 C-181.72868732 463.36009723 -181.92157706 464.38264256 -183.4765625 468.5390625 C-184.22199149 470.89196412 -184.93660726 473.25478358 -185.625 475.625 C-186.00325928 476.84292236 -186.38151855 478.06084473 -186.77124023 479.31567383 C-187.523989 481.74818992 -188.2647012 484.184467 -188.99267578 486.62451172 C-190.09014035 490.30205539 -191.24187989 493.95979667 -192.40576172 497.61669922 C-193.29010069 500.40516135 -194.14723851 503.20174244 -195 506 C-197.5658318 505.00423495 -200.05746153 503.97144713 -202.5234375 502.74609375 C-213.28285337 497.80855359 -224.3437692 498.07618452 -236 498 C-235.3557372 491.45110184 -234.31289453 485.08209745 -233.0625 478.625 C-226.64340577 444.0831923 -228.16409837 414.2857718 -242.43457031 381.83691406 C-252.23698981 359.52546983 -256.5958822 340.31505275 -252.99609375 315.8203125 C-251.82543462 307.52761634 -251.64560922 299.36530235 -251.6875 291 C-251.69023422 289.85930054 -251.69023422 289.85930054 -251.69302368 288.69555664 C-251.78525063 265.71752689 -252.83089877 236.3535808 -267 217 C-272.2077728 213.43231625 -277.94208637 211.31780015 -283.8125 209.0625 C-299.17337709 202.99620807 -309.47035448 198.30214261 -316.87109375 182.734375 C-319.10305059 177.32825116 -319.24633644 172.41210606 -319.3125 166.625 C-319.34150391 165.78710938 -319.37050781 164.94921875 -319.40039062 164.0859375 C-319.45685542 158.56107464 -318.80951331 155.2962484 -315 151 C-310.40225757 146.88118907 -304.8373558 147.60793965 -299 147.5625 C-284.81422585 147.14536898 -275.93118296 145.33588583 -265.03125 135.59765625 C-253.76207028 125.94043394 -240.79988727 119.07809099 -225.796875 119.64453125 C-208.21704859 121.2903792 -190.72597965 127.41384299 -178.375 140.5 C-169.6799094 151.33110542 -162.61268147 163.8195655 -156 176 C-155.13955078 177.34384766 -155.13955078 177.34384766 -154.26171875 178.71484375 C-152.42525133 183.49648182 -153.02930851 187.82426946 -153.3125 192.875 C-153.60435108 204.28413229 -151.24890849 211.60254741 -145 221 C-144.56655273 221.67111816 -144.13310547 222.34223633 -143.68652344 223.03369141 C-140.59615783 227.79213939 -137.34579732 232.41843409 -134 237 C-133.23558594 238.04929687 -132.47117187 239.09859375 -131.68359375 240.1796875 C-129.48581095 243.14413872 -127.25258566 246.07700194 -125 249 C-124.58814453 249.53802246 -124.17628906 250.07604492 -123.75195312 250.63037109 C-118.35645692 257.66682836 -112.78568478 264.53001626 -107 271.25 C-106.44795898 271.89428955 -105.89591797 272.5385791 -105.32714844 273.20239258 C-104.80668945 273.80075928 -104.28623047 274.39912598 -103.75 275.015625 C-103.29109375 275.54446289 -102.8321875 276.07330078 -102.359375 276.61816406 C-100.84738442 278.24918103 -100.84738442 278.24918103 -98 280 C-98.04640625 278.98164063 -98.0928125 277.96328125 -98.140625 276.9140625 C-98.85600852 254.15779439 -90.71241383 234.0218496 -81.66503906 213.49243164 C-81.34631836 212.75887451 -81.02759766 212.02531738 -80.69921875 211.26953125 C-80.41908936 210.63635986 -80.13895996 210.00318848 -79.8503418 209.35083008 C-77.42935893 202.65785161 -76.70073577 196.66950537 -76.734375 189.61328125 C-76.73021324 188.2824929 -76.73021324 188.2824929 -76.72596741 186.92481995 C-76.72182474 184.05388701 -76.73438663 181.18338921 -76.75 178.3125 C-76.75276947 177.33146301 -76.75553894 176.35042603 -76.75839233 175.33966064 C-76.83276639 152.89242497 -76.99651441 129.98647032 -82 108 C-82.20625 107.02804687 -82.4125 106.05609375 -82.625 105.0546875 C-83.43213217 102.43991559 -84.08614032 100.95638989 -86 99 C-90.16825747 96.97012883 -94.49706914 96.03278231 -99 95 C-117.29887656 90.30475064 -133.43203092 83.72824311 -143.5 66.78515625 C-149.32671777 55.96627664 -151.11917845 45.24926442 -151.375 33.0625 C-151.40110352 32.34054443 -151.42720703 31.61858887 -151.45410156 30.87475586 C-151.46607422 27.21497098 -151.11655514 25.18187458 -149.125 22.07421875 C-142.89559881 15.99368192 -133.61452799 16.87673009 -125.4921875 16.89453125 C-123.4335832 16.88108611 -121.37498869 16.86606497 -119.31640625 16.84960938 C-116.08575105 16.82670566 -112.85621509 16.81257198 -109.62548828 16.82495117 C-106.49690893 16.83374065 -103.37053806 16.80495016 -100.2421875 16.76953125 C-99.27546112 16.78176224 -98.30873474 16.79399323 -97.31271362 16.80659485 C-94.73669337 16.75989288 -92.48965658 16.66461939 -90 16 C-87.3184646 13.2479369 -87.3184646 13.2479369 -86 10 C-85.67515625 9.31035156 -85.3503125 8.62070313 -85.015625 7.91015625 C-84.63664062 6.99556641 -84.63664062 6.99556641 -84.25 6.0625 C-79.99163686 -2.55287562 -71.74180109 -6.86282138 -63 -10 C-42.52055359 -16.19399657 -17.5629818 -12.12190116 0 0 Z " fill="#3A4240" transform="translate(678,150)"/>
<path d="M0 0 C31.53511604 24.44461168 37.93314347 67.6546333 43.10546875 104.73046875 C43.25419434 105.77122559 43.40291992 106.81198242 43.55615234 107.88427734 C43.85350949 109.97166562 44.14019709 112.06060006 44.41650391 114.15087891 C45.93836322 124.66750892 49.65918191 132.07805409 56 140.5 C57.16623284 142.0813913 58.33157709 143.66343825 59.49609375 145.24609375 C60.08245605 146.03870605 60.66881836 146.83131836 61.27294922 147.64794922 C63.91893191 151.2514829 66.49313197 154.9041283 69.0625 158.5625 C69.55298828 159.25923828 70.04347656 159.95597656 70.54882812 160.67382812 C71.53827758 162.07934042 72.52737372 163.4851015 73.51611328 164.89111328 C76.00648776 168.43041153 78.50353375 171.9649973 81 175.5 C84.5721838 180.55859585 88.14091408 185.61958795 91.70507812 190.68383789 C93.21082816 192.8194426 94.72214978 194.95100869 96.234375 197.08203125 C97.97877887 199.54207261 99.69769871 202.01601312 101.390625 204.51171875 C102.08671875 205.51847656 102.7828125 206.52523437 103.5 207.5625 C104.0878125 208.43003906 104.675625 209.29757812 105.28125 210.19140625 C106.13203125 211.08666016 106.13203125 211.08666016 107 212 C111.41594728 212 111.53965449 211.86386211 114.5625 209.125 C121.93225556 203.14392565 130.47430655 199.0694224 139 195 C140.04671875 194.49597656 141.0934375 193.99195313 142.171875 193.47265625 C149.75278248 190.53034271 157.45242941 190.63334129 165.5 190.5625 C166.62792969 190.55202637 167.75585938 190.54155273 168.91796875 190.53076172 C186.45359757 190.7166068 201.36114923 196.06777388 215 207 C216.04607422 207.79857422 216.04607422 207.79857422 217.11328125 208.61328125 C234.35061824 222.53441713 245.06335622 246.39040106 248 268 C248.37823512 273.41845499 248.48985501 278.81944475 248.5 284.25 C248.50201416 285.00055664 248.50402832 285.75111328 248.50610352 286.52441406 C248.4821575 299.77078853 246.79944018 311.56508681 242 324 C241.70029297 324.79245117 241.40058594 325.58490234 241.09179688 326.40136719 C234.87023879 342.44400476 225.97847004 356.38559541 214.55395508 369.19091797 C213.40047311 370.53377758 212.2832107 371.90792668 211.1862793 373.29736328 C204.96136426 381.1690851 198.06589035 388.20712442 190.94311523 395.26269531 C188.93215361 397.25529758 186.92941305 399.25588933 184.92773438 401.2578125 C178.7877607 407.38074655 172.63907489 413.41357542 166 419 C163.50910621 421.22321565 161.03110742 423.45990287 158.5546875 425.69921875 C156.92230555 427.1693609 155.28236789 428.63118468 153.6328125 430.08203125 C147.87183578 435.17246805 142.43701544 440.52570326 137.03222656 445.98706055 C134.10357443 448.93528496 131.17586482 451.81482674 128 454.5 C117.99068223 463.02406416 109.10862043 472.6786645 101 483 C100.0718662 484.11826183 99.14069962 485.23401122 98.20703125 486.34765625 C91.70403421 494.17675465 86.07520619 502.27537096 80.83276367 511.00585938 C80.35943604 511.78638672 79.8861084 512.56691406 79.3984375 513.37109375 C78.98255371 514.07161865 78.56666992 514.77214355 78.13818359 515.49389648 C77.76258301 515.99091064 77.38698242 516.4879248 77 517 C76.34 517 75.68 517 75 517 C73.81420898 515.44628906 73.81420898 515.44628906 72.49609375 513.265625 C72.00753906 512.46987061 71.51898437 511.67411621 71.015625 510.85424805 C70.49484375 509.99484619 69.9740625 509.13544434 69.4375 508.25 C64.63697433 500.50285096 59.72012753 493.10860293 54 486 C53.21496094 485.01128906 52.42992187 484.02257812 51.62109375 483.00390625 C44.89852687 474.75870131 37.43278708 467.22237005 29.9375 459.6875 C29.43088837 459.17562134 28.92427673 458.66374268 28.40231323 458.13635254 C22.36099316 452.04655929 16.19145013 446.3701772 9.48022461 441.00805664 C6.11009071 438.27950547 2.95308427 435.36174442 -0.1875 432.375 C-3.71310029 429.04320464 -7.25793863 425.75416303 -10.921875 422.57421875 C-15.77254311 418.35705734 -20.42388468 413.93871394 -25.08789062 409.51757812 C-28.22929046 406.55324456 -31.38627553 403.63838081 -34.68359375 400.84765625 C-37.60963802 398.36957315 -40.32046583 395.74585927 -43 393 C-43.80179688 392.20980469 -44.60359375 391.41960937 -45.4296875 390.60546875 C-50.51824984 385.57380726 -55.4098946 380.48874408 -60 375 C-60.46809082 374.45102051 -60.93618164 373.90204102 -61.41845703 373.33642578 C-69.30278514 364.06803022 -76.21872335 354.71631242 -82 344 C-82.35433105 343.34499512 -82.70866211 342.68999023 -83.07373047 342.01513672 C-93.55039701 322.40399315 -98.62108627 303.34092258 -98.4375 281.1875 C-98.43412628 280.3953006 -98.43075256 279.6031012 -98.42727661 278.78689575 C-98.35523146 267.10629906 -97.82914182 256.13192043 -94 245 C-93.75330566 244.2565332 -93.50661133 243.51306641 -93.25244141 242.74707031 C-89.90375774 232.79352439 -85.89880495 223.09927911 -81.66503906 213.49243164 C-81.34631836 212.75887451 -81.02759766 212.02531738 -80.69921875 211.26953125 C-80.41908936 210.63635986 -80.13895996 210.00318848 -79.8503418 209.35083008 C-77.42935893 202.65785161 -76.70073577 196.66950537 -76.734375 189.61328125 C-76.73021324 188.2824929 -76.73021324 188.2824929 -76.72596741 186.92481995 C-76.72182474 184.05388701 -76.73438663 181.18338921 -76.75 178.3125 C-76.75276947 177.33146301 -76.75553894 176.35042603 -76.75839233 175.33966064 C-76.83276639 152.89242497 -76.99651441 129.98647032 -82 108 C-82.309375 106.54207031 -82.309375 106.54207031 -82.625 105.0546875 C-83.43213217 102.43991559 -84.08614032 100.95638989 -86 99 C-90.16825747 96.97012883 -94.49706914 96.03278231 -99 95 C-117.29887656 90.30475064 -133.43203092 83.72824311 -143.5 66.78515625 C-149.32671777 55.96627664 -151.11917845 45.24926442 -151.375 33.0625 C-151.40110352 32.34054443 -151.42720703 31.61858887 -151.45410156 30.87475586 C-151.46607422 27.21497098 -151.11655514 25.18187458 -149.125 22.07421875 C-142.89559881 15.99368192 -133.61452799 16.87673009 -125.4921875 16.89453125 C-123.4335832 16.88108611 -121.37498869 16.86606497 -119.31640625 16.84960938 C-116.08575105 16.82670566 -112.85621509 16.81257198 -109.62548828 16.82495117 C-106.49690893 16.83374065 -103.37053806 16.80495016 -100.2421875 16.76953125 C-99.27546112 16.78176224 -98.30873474 16.79399323 -97.31271362 16.80659485 C-94.73669337 16.75989288 -92.48965658 16.66461939 -90 16 C-87.3184646 13.2479369 -87.3184646 13.2479369 -86 10 C-85.67515625 9.31035156 -85.3503125 8.62070313 -85.015625 7.91015625 C-84.63664063 6.99556641 -84.63664063 6.99556641 -84.25 6.0625 C-79.99163686 -2.55287562 -71.74180109 -6.86282138 -63 -10 C-42.52055359 -16.19399657 -17.5629818 -12.12190116 0 0 Z " fill="#E22020" transform="translate(678,150)"/>
<path d="M0 0 C31.53511604 24.44461168 37.93314347 67.6546333 43.10546875 104.73046875 C43.25419434 105.77122559 43.40291992 106.81198242 43.55615234 107.88427734 C43.85350949 109.97166562 44.14019709 112.06060006 44.41650391 114.15087891 C45.93836322 124.66750892 49.65918191 132.07805409 56 140.5 C57.16623284 142.0813913 58.33157709 143.66343825 59.49609375 145.24609375 C60.08245605 146.03870605 60.66881836 146.83131836 61.27294922 147.64794922 C63.91893191 151.2514829 66.49313197 154.9041283 69.0625 158.5625 C69.55298828 159.25923828 70.04347656 159.95597656 70.54882812 160.67382812 C71.53827758 162.07934042 72.52737372 163.4851015 73.51611328 164.89111328 C76.00648776 168.43041153 78.50353375 171.9649973 81 175.5 C84.04952361 179.81845289 87.09768079 184.13784513 90.140625 188.4609375 C90.65713623 189.19417236 91.17364746 189.92740723 91.70581055 190.68286133 C92.72350507 192.12758531 93.74060925 193.57272535 94.75708008 195.01831055 C96.97173861 198.16044727 99.19885831 201.28866861 101.49609375 204.37109375 C102.21925781 205.34175781 102.94242188 206.31242188 103.6875 207.3125 C104.31011719 208.13363281 104.93273437 208.95476562 105.57421875 209.80078125 C106.98761775 211.98090081 107.84473555 213.403336 108 216 C106.8828125 217.5 106.8828125 217.5 105.125 219 C92.22936062 231.07524085 82.012694 249.13912018 77 266 C75.14453125 265.85546875 75.14453125 265.85546875 73 265 C71.76171875 262.55078125 71.76171875 262.55078125 70.6875 259.3125 C61.15103076 232.84157325 43.92437964 210.66452402 18.19140625 198.43359375 C7.47679123 193.62054147 -2.06976703 191.64168245 -13.8125 191.75 C-14.87694336 191.75749268 -15.94138672 191.76498535 -17.03808594 191.77270508 C-39.63691909 192.08282399 -56.22325389 200.2485788 -72.125 216.12109375 C-87.11618923 232.07851198 -94.55912255 252.57808869 -97 274 C-97.33 274 -97.66 274 -98 274 C-99.66367365 253.01922669 -89.92503267 232.23520127 -81.66503906 213.49243164 C-81.34631836 212.75887451 -81.02759766 212.02531738 -80.69921875 211.26953125 C-80.41908936 210.63635986 -80.13895996 210.00318848 -79.8503418 209.35083008 C-77.42935893 202.65785161 -76.70073577 196.66950537 -76.734375 189.61328125 C-76.73021324 188.2824929 -76.73021324 188.2824929 -76.72596741 186.92481995 C-76.72182474 184.05388701 -76.73438663 181.18338921 -76.75 178.3125 C-76.75276947 177.33146301 -76.75553894 176.35042603 -76.75839233 175.33966064 C-76.83276639 152.89242497 -76.99651441 129.98647032 -82 108 C-82.309375 106.54207031 -82.309375 106.54207031 -82.625 105.0546875 C-83.43213217 102.43991559 -84.08614032 100.95638989 -86 99 C-90.16825747 96.97012883 -94.49706914 96.03278231 -99 95 C-117.29887656 90.30475064 -133.43203092 83.72824311 -143.5 66.78515625 C-149.32671777 55.96627664 -151.11917845 45.24926442 -151.375 33.0625 C-151.40110352 32.34054443 -151.42720703 31.61858887 -151.45410156 30.87475586 C-151.46607422 27.21497098 -151.11655514 25.18187458 -149.125 22.07421875 C-142.89559881 15.99368192 -133.61452799 16.87673009 -125.4921875 16.89453125 C-123.4335832 16.88108611 -121.37498869 16.86606497 -119.31640625 16.84960938 C-116.08575105 16.82670566 -112.85621509 16.81257198 -109.62548828 16.82495117 C-106.49690893 16.83374065 -103.37053806 16.80495016 -100.2421875 16.76953125 C-99.27546112 16.78176224 -98.30873474 16.79399323 -97.31271362 16.80659485 C-94.73669337 16.75989288 -92.48965658 16.66461939 -90 16 C-87.3184646 13.2479369 -87.3184646 13.2479369 -86 10 C-85.67515625 9.31035156 -85.3503125 8.62070313 -85.015625 7.91015625 C-84.63664063 6.99556641 -84.63664063 6.99556641 -84.25 6.0625 C-79.99163686 -2.55287562 -71.74180109 -6.86282138 -63 -10 C-42.52055359 -16.19399657 -17.5629818 -12.12190116 0 0 Z " fill="#3A4240" transform="translate(678,150)"/>
<path d="M0 0 C1.55069875 1.55069875 1.14053975 3.02306943 1.15821838 5.18238831 C1.17290161 6.53492203 1.17290161 6.53492203 1.18788147 7.91477966 C1.19363693 8.91171341 1.1993924 9.90864716 1.20532227 10.93579102 C1.21522186 11.97956909 1.22512146 13.02334717 1.23532104 14.09875488 C1.26704254 17.56711518 1.29173541 21.03548921 1.31640625 24.50390625 C1.33696659 26.90144721 1.3579628 29.29898448 1.37937927 31.69651794 C1.43469498 38.02091484 1.48406223 44.34534495 1.53222656 50.6697998 C1.58237241 57.1177874 1.63809449 63.56572648 1.69335938 70.01367188 C1.80105706 82.67573957 1.90266526 95.33784863 2 108 C5.74528163 104.32953193 9.48009358 100.64881959 13.20605469 96.95874023 C14.47186353 95.70790852 15.74036541 94.45979545 17.01171875 93.21459961 C29.18291505 82.35624097 29.18291505 82.35624097 35.5 68.0625 C35.2897394 64.90045308 35.2897394 64.90045308 33 63 C31.35008418 62.29289322 29.68437744 61.62056011 28 61 C28.33 59.68 28.66 58.36 29 57 C44.84 57 60.68 57 77 57 C77 58.65 77 60.3 77 62 C76.3915625 62.0515625 75.783125 62.103125 75.15625 62.15625 C59.63778274 64.16452223 47.01178547 73.61147803 35 83 C37.22854538 90.1924625 40.1103915 96.87863533 43.3125 103.6875 C43.83303955 104.80310303 44.3535791 105.91870605 44.88989258 107.06811523 C46.00717247 109.46195562 47.12621064 111.85491054 48.24707031 114.24707031 C50.04167694 118.08231631 51.81438135 121.92750406 53.5859375 125.7734375 C71.09468439 167.29027386 71.09468439 167.29027386 102.375 197.875 C108.13925636 199.66390715 113.98525172 200 120 200 C120 201.32 120 202.64 120 204 C108.18441198 209.94762184 93.30109777 209.79115393 80.7578125 206.03515625 C55.40256241 196.51795898 43.39039163 178.32801972 32.61791992 154.70767212 C31.5728172 152.39100517 30.5363663 150.0705862 29.5 147.75 C28.3992612 145.31427763 27.29515392 142.88010029 26.19090271 140.44596863 C25.46810712 138.85206951 24.74637829 137.25768617 24.02577209 135.66279602 C21.07347745 129.13341007 18.03574689 122.64909676 14.9375 116.1875 C14.52628906 115.32930664 14.11507812 114.47111328 13.69140625 113.58691406 C12.79658497 111.72349635 11.89874504 109.86152842 11 108 C9.87411986 108.95729916 8.7493285 109.91587895 7.625 110.875 C6.99851562 111.40867187 6.37203125 111.94234375 5.7265625 112.4921875 C2.87379024 114.75444677 2.87379024 114.75444677 1.74603271 118.02912903 C1.74444153 118.86232162 1.74285034 119.69551422 1.74121094 120.55395508 C1.73175446 121.97101494 1.73175446 121.97101494 1.72210693 123.41670227 C1.7261554 124.44063583 1.73020386 125.4645694 1.734375 126.51953125 C1.73150482 128.09561409 1.73150482 128.09561409 1.72857666 129.70353699 C1.72721363 131.93037149 1.73091827 134.1572139 1.73925781 136.3840332 C1.74992357 139.788106 1.73938287 143.19164718 1.7265625 146.59570312 C1.7278847 148.75781366 1.73044835 150.91992387 1.734375 153.08203125 C1.72830231 154.60882256 1.72830231 154.60882256 1.72210693 156.16645813 C1.72841125 157.12062119 1.73471558 158.07478424 1.74121094 159.05786133 C1.74280212 159.8934407 1.74439331 160.72902008 1.74603271 161.58992004 C2.11510904 165.09235325 3.16196654 167.95065725 5.36328125 170.70703125 C7.23763314 172.18772451 8.93314916 172.91141201 11.1875 173.6875 C11.90292969 173.93886719 12.61835937 174.19023438 13.35546875 174.44921875 C13.89816406 174.63097656 14.44085937 174.81273437 15 175 C15 176.32 15 177.64 15 179 C-26.58 179 -68.16 179 -111 179 C-111 177.35 -111 175.7 -111 174 C-110.18595703 173.65388672 -110.18595703 173.65388672 -109.35546875 173.30078125 C-104.82517297 171.23561939 -102.03219982 169.78164664 -100 165 C-98.77425845 161.25878556 -98.83814649 157.51597924 -98.82299805 153.62036133 C-98.81642685 152.88320892 -98.80985565 152.14605652 -98.80308533 151.38656616 C-98.78340776 148.95172004 -98.77170083 146.51693551 -98.76171875 144.08203125 C-98.75764322 143.24742559 -98.7535677 142.41281994 -98.74936867 141.5529232 C-98.72852943 137.13351059 -98.71421963 132.71412881 -98.70483398 128.29467773 C-98.69378667 123.74642812 -98.65940024 119.19867003 -98.61966228 114.65059376 C-98.593425 111.13910559 -98.58513577 107.62773318 -98.58155251 104.11615562 C-98.57670326 102.44053524 -98.56513701 100.76491944 -98.54651451 99.08939552 C-98.21344329 86.45308713 -98.21344329 86.45308713 -103 75 C-106.61473225 71.38526775 -110.45742313 69.18242704 -115.61328125 68.8125 C-122.53781235 69.2935094 -127.18036453 70.87980819 -132 76 C-135.72639723 80.67870087 -136.5784171 84.27555366 -136.50170898 90.11328125 C-136.50711197 90.90431244 -136.51251495 91.69534363 -136.51808167 92.51034546 C-136.53053529 95.11145044 -136.51410103 97.71144121 -136.49609375 100.3125 C-136.49624882 102.12801166 -136.49773907 103.94352365 -136.50050354 105.7590332 C-136.50188602 109.55858039 -136.48935478 113.35774941 -136.46655273 117.15722656 C-136.43816856 122.01956744 -136.44090745 126.88128025 -136.45364285 131.7436676 C-136.46060865 135.49098036 -136.45280044 139.23814879 -136.44038582 142.98544312 C-136.43588008 144.77793829 -136.43552683 146.57044901 -136.43945122 148.36294556 C-136.44237231 150.87119127 -136.42581417 153.37858136 -136.40405273 155.88671875 C-136.41080521 156.9903627 -136.41080521 156.9903627 -136.41769409 158.11630249 C-136.3503923 162.80169785 -135.4776187 166.02191005 -133 170 C-129.7943528 172.44641497 -126.97236879 173.43251874 -123 174 C-123 175.65 -123 177.3 -123 179 C-143.46 179 -163.92 179 -185 179 C-185 178.01 -185 177.02 -185 176 C-184.09507812 175.65388672 -184.09507812 175.65388672 -183.171875 175.30078125 C-178.25076022 173.29264893 -174.83350872 171.72251454 -172 167 C-170.70288427 163.24611915 -170.83795654 159.40596552 -170.82299805 155.48095703 C-170.81642685 154.72923218 -170.80985565 153.97750732 -170.80308533 153.20300293 C-170.78341289 150.72127169 -170.77170475 148.23960072 -170.76171875 145.7578125 C-170.75764322 144.90842983 -170.7535677 144.05904716 -170.74936867 143.18392563 C-170.72853612 138.69016515 -170.71422092 134.19643499 -170.70483398 129.70263672 C-170.69376111 125.06665874 -170.65934327 120.4311596 -170.61966228 115.79535103 C-170.59349991 112.22479367 -170.58514262 108.65435068 -170.58155251 105.0837059 C-170.57668742 103.37490471 -170.56507561 101.66610859 -170.54651451 99.95740128 C-170.52212495 97.56382601 -170.52308694 95.17149392 -170.5300293 92.77783203 C-170.51721924 92.07633026 -170.50440918 91.37482849 -170.49121094 90.65206909 C-170.54384008 85.65905553 -171.89172481 82.85494379 -175 79 C-178.6928439 76.20541543 -182.54140663 75.13650419 -187 74 C-186.79467773 72.10473633 -186.79467773 72.10473633 -186 70 C-183.96899414 69.0144043 -183.96899414 69.0144043 -181.28515625 68.32421875 C-180.29684814 68.05681885 -179.30854004 67.78941895 -178.2902832 67.51391602 C-176.69253052 67.10484009 -176.69253052 67.10484009 -175.0625 66.6875 C-166.33679132 64.32267347 -157.94787438 61.66594592 -149.62329102 58.13354492 C-142.84805599 55.31762078 -142.84805599 55.31762078 -139 56 C-136.57520264 59.63719605 -136.61337423 61.85703482 -136.375 66.1875 C-136.30023438 67.45980469 -136.22546875 68.73210937 -136.1484375 70.04296875 C-136.09945312 71.01878906 -136.05046875 71.99460937 -136 73 C-135.59910156 72.50371094 -135.19820313 72.00742187 -134.78515625 71.49609375 C-126.86614418 62.03278454 -118.19554955 54.91332772 -105.5390625 53.65625 C-94.15069572 53.35980661 -84.81901098 55.56900994 -76 63 C-67.52544112 71.43681029 -65.59893734 82.45846069 -65.47663975 93.95071697 C-65.47302983 95.59063487 -65.47550155 97.23057571 -65.48357964 98.87047768 C-65.49637054 101.48230084 -65.48477769 104.09309202 -65.46754456 106.70487976 C-65.44102924 111.30362215 -65.4352423 115.90210497 -65.43664551 120.50091553 C-65.43888722 127.87694516 -65.42463394 135.25265611 -65.38105965 142.62856102 C-65.37127163 145.19170097 -65.37990732 147.75433021 -65.38975525 150.31745911 C-65.38360924 151.8956434 -65.3766969 153.47382497 -65.36889648 155.05200195 C-65.37661575 155.75604156 -65.38433502 156.46008118 -65.39228821 157.18545532 C-65.34110275 162.22569722 -64.27660747 165.59480792 -62 170 C-58.07658364 173.4268699 -54.06389147 173.45858872 -49.0625 173.375 C-48.02706055 173.39240234 -48.02706055 173.39240234 -46.97070312 173.41015625 C-42.24434201 173.38327647 -38.86477855 172.75653783 -35 170 C-31.22332775 163.56244745 -31.57565977 157.21798625 -31.61181641 149.90795898 C-31.60655945 148.59984253 -31.60130249 147.29172607 -31.59588623 145.94396973 C-31.58226203 142.37169563 -31.58749047 138.79968276 -31.59702349 135.22740436 C-31.604644 131.4812723 -31.597568 127.73516191 -31.59286499 123.98902893 C-31.58741506 117.70040897 -31.59457968 111.41189489 -31.60888672 105.12329102 C-31.62521893 97.86082209 -31.61991762 90.59860578 -31.6034075 83.33614296 C-31.58977933 77.09050255 -31.58787925 70.84493804 -31.59572351 64.59928757 C-31.60039182 60.87344063 -31.60104802 57.14771233 -31.59111404 53.42187309 C-31.5808129 49.26864611 -31.59510343 45.11585257 -31.61181641 40.96264648 C-31.60270737 39.11797539 -31.60270737 39.11797539 -31.59341431 37.23603821 C-31.61107923 29.18747985 -31.61107923 29.18747985 -35 22 C-38.37319716 18.71797033 -41.48749249 17.25930442 -46 16 C-45.67 14.35 -45.34 12.7 -45 11 C-44.14921875 10.79246094 -43.2984375 10.58492187 -42.421875 10.37109375 C-36.48545435 8.86172722 -30.65831326 7.28575987 -24.90234375 5.17578125 C-24.03706055 4.85875244 -23.17177734 4.54172363 -22.28027344 4.21508789 C-20.59193704 3.58665157 -18.90860161 2.94455724 -17.23144531 2.28686523 C-11.44317566 0.13182082 -6.18072454 -0.67355542 0 0 Z " fill="#394240" transform="translate(554,611)"/>
<path d="M0 0 C0.33 23.76 0.66 47.52 1 72 C3.64 69.36 6.28 66.72 9 64 C20.24921422 57.0432491 32.44164247 56.10350049 45.4453125 58.68359375 C59.82025915 63.61858256 69.38486463 73.60558198 76 87 C84.58401183 107.74685638 83.27680977 134.39019555 75 155 C68.75742032 169.13414267 58.90184019 178.69783245 45 185 C32.31018173 189.67187339 18.95850345 189.29489959 6.52734375 183.93359375 C1.61551626 181.38079147 -2.21138314 178.20717705 -6.078125 174.2578125 C-7.95175445 172.78730117 -7.95175445 172.78730117 -10.3984375 172.9609375 C-14.4757827 174.58942672 -16.90798422 177.80696144 -19.71875 181.05078125 C-22.37540604 183.92756022 -23.93150333 184.98361729 -27.7890625 185.90625 C-29.37847656 185.95265625 -29.37847656 185.95265625 -31 186 C-32.7972041 184.2027959 -32.13647522 181.49173444 -32.14476013 179.06695557 C-32.15165863 177.77702698 -32.15855713 176.48709839 -32.16566467 175.15808105 C-32.16837966 173.71508803 -32.17101679 172.27209486 -32.17358398 170.82910156 C-32.17988563 169.3198426 -32.18665099 167.81058552 -32.19384766 166.30133057 C-32.20854644 163.04319903 -32.22025955 159.78507482 -32.22979546 156.52692413 C-32.24521402 151.3754792 -32.26916386 146.22409633 -32.29469299 141.07269287 C-32.36598291 126.42122314 -32.42565625 111.76971744 -32.47680664 97.11816406 C-32.50511091 89.0323499 -32.5404952 80.94659708 -32.58346039 72.86084723 C-32.61024109 67.73996295 -32.62814154 62.61914812 -32.63949764 57.49820757 C-32.64862619 54.30978296 -32.66598971 51.12144257 -32.68567657 47.93306732 C-32.69314796 46.45485254 -32.69723289 44.97661616 -32.69767189 43.49838257 C-32.69875567 41.4792226 -32.71317616 39.46008295 -32.72825623 37.440979 C-32.73248816 36.31123783 -32.7367201 35.18149666 -32.74108028 34.0175209 C-33.14535301 29.30601643 -34.26025925 26.7577832 -37.5625 23.375 C-41.2744598 20.45517058 -45.49639756 19.23098467 -50 18 C-50 16.68 -50 15.36 -50 14 C-48.93265625 13.79246094 -47.8653125 13.58492187 -46.765625 13.37109375 C-38.05104205 11.59791544 -29.64328791 9.39326803 -21.25 6.4375 C-20.41758789 6.14480225 -19.58517578 5.85210449 -18.72753906 5.55053711 C-15.26373171 4.2990129 -12.05138876 3.02751179 -8.796875 1.28515625 C-6 0 -6 0 0 0 Z " fill="#38413F" transform="translate(1187,602)"/>
<path d="M0 0 C13.97532332 9.7492525 23.4281424 23.72362835 26.59082031 40.56298828 C28.72695087 54.99624312 28.42026963 71.09524543 23.0625 84.75 C22.66160156 85.78769531 22.26070312 86.82539062 21.84765625 87.89453125 C15.27610366 102.73290652 3.19017021 112.76276408 -11.6875 118.6875 C-27.32294569 123.53656862 -45.93925698 122.41636771 -60.5625 115.125 C-75.25887206 106.54858691 -84.87484091 93.56417661 -89.9765625 77.47265625 C-94.6418059 58.78988245 -93.10924752 37.74247 -83.9375 20.75 C-75.06412653 6.25845296 -62.44955349 -2.58983498 -46.171875 -7.3515625 C-30.44420876 -11.11988159 -13.78638793 -8.19163494 0 0 Z " fill="#394240" transform="translate(1372.9375,668.25)"/>
<path d="M0 0 C21.12 0 42.24 0 64 0 C63.67 1.65 63.34 3.3 63 5 C62.31035156 5.02578125 61.62070312 5.0515625 60.91015625 5.078125 C44.52126986 6.06730333 31.13938263 16.42376147 20.42431641 28.34375 C15.29533439 34.30792793 10.66663442 40.67365676 6 47 C4.69957418 48.74896225 3.39878376 50.49765345 2.09765625 52.24609375 C-0.37247071 55.57554352 -2.8409107 58.9061796 -5.296875 62.24609375 C-5.79541992 62.92341553 -6.29396484 63.6007373 -6.80761719 64.29858398 C-8.05902606 65.99547592 -8.05902606 65.99547592 -9 68 C-8.12085938 68.25652344 -7.24171875 68.51304687 -6.3359375 68.77734375 C13.98881428 76.22657947 24.9013013 99.84182241 34.67724609 117.5065918 C49.38066797 146.32315336 49.38066797 146.32315336 74.40625 164.796875 C76.25185135 165.27777113 78.12466044 165.6527149 80 166 C79.67 167.65 79.34 169.3 79 171 C74.18027209 171.04982621 69.3606976 171.08591929 64.54077148 171.10986328 C62.90467717 171.11985617 61.26860041 171.13345507 59.63256836 171.15087891 C46.52820856 171.28684114 34.52110793 171.38155857 24.04296875 162.3046875 C10.20263147 147.92877708 1.87291091 127.5538953 -7 110 C-7.58620117 108.84274414 -8.17240234 107.68548828 -8.77636719 106.49316406 C-10.45996989 103.16454318 -12.13821981 99.83331887 -13.8125 96.5 C-14.32224365 95.48534668 -14.8319873 94.47069336 -15.35717773 93.42529297 C-15.82325439 92.49088379 -16.28933105 91.55647461 -16.76953125 90.59375 C-17.17792236 89.77583984 -17.58631348 88.95792969 -18.00708008 88.11523438 C-19 86 -19 86 -20 83 C-21.72847139 84.6267966 -23.3709268 86.27628084 -25 88 C-25.77663246 88.79380821 -25.77663246 88.79380821 -26.56895447 89.60365295 C-31.75494693 95.56818288 -31.83743519 100.8172772 -31.69140625 108.49609375 C-31.69003159 109.68421158 -31.68865692 110.87232941 -31.6872406 112.09645081 C-31.67820818 114.60028105 -31.65465405 117.10409617 -31.61743164 119.60766602 C-31.56272231 123.42200044 -31.55590282 127.23414239 -31.55664062 131.04882812 C-31.54188957 133.48960206 -31.52440219 135.9303613 -31.50390625 138.37109375 C-31.50056778 139.50260361 -31.49722931 140.63411346 -31.49378967 141.7999115 C-31.36091506 149.26050133 -30.80424182 156.35448563 -26.125 162.4375 C-22.02880771 165.4494061 -17.98277504 166.30472906 -13 167 C-13 168.32 -13 169.64 -13 171 C-36.1 171 -59.2 171 -83 171 C-83 169.68 -83 168.36 -83 167 C-82.40832031 166.90203125 -81.81664062 166.8040625 -81.20703125 166.703125 C-74.28931818 165.40390375 -74.28931818 165.40390375 -69 161 C-65.43285533 152.86240129 -64.42007199 145.34078347 -64.49829102 136.53710938 C-64.49288803 135.35494339 -64.48748505 134.1727774 -64.48191833 132.95478821 C-64.46950876 129.0841799 -64.48587136 125.21432678 -64.50390625 121.34375 C-64.50566585 118.63195409 -64.50231227 115.9201685 -64.49949646 113.20837402 C-64.49680567 107.53970697 -64.51017173 101.87125302 -64.53344727 96.20263672 C-64.56004996 89.67917877 -64.5617999 83.15607676 -64.5500589 76.63258314 C-64.53922312 70.31822697 -64.54551337 64.00399766 -64.55961418 57.68965149 C-64.56532408 55.02005445 -64.56448251 52.35070442 -64.56054878 49.68107605 C-64.55761731 45.94146752 -64.5742368 42.2024271 -64.59594727 38.46289062 C-64.59144562 37.37474564 -64.58694397 36.28660065 -64.58230591 35.16548157 C-64.6465182 22.5770419 -64.6465182 22.5770419 -70.06678104 11.72251129 C-72.14919037 9.91937582 -72.14919037 9.91937582 -74.35546875 8.40234375 C-74.89816406 7.93957031 -75.44085937 7.47679687 -76 7 C-76 6.01 -76 5.02 -76 4 C-57.19 4 -38.38 4 -19 4 C-21 8 -21 8 -23.375 9.25 C-27.08326427 11.72217618 -28.62344116 14.80959294 -30 19 C-31.22511773 26.36555963 -31.12740065 33.67340398 -31.09765625 41.125 C-31.0957878 42.48120064 -31.09436592 43.83740196 -31.09336853 45.19360352 C-31.08957696 48.73795483 -31.07977595 52.28226421 -31.06866455 55.82659912 C-31.05837762 59.45340406 -31.05385541 63.08021588 -31.04882812 66.70703125 C-31.03815018 73.8047045 -31.02111484 80.90234949 -31 88 C-24.19396585 78.99122125 -17.42980039 69.97096638 -11 60.6875 C-9.99598145 59.24008423 -9.99598145 59.24008423 -8.97167969 57.76342773 C-4.61228359 51.43773423 -0.36565392 45.04943756 3.75 38.5625 C4.22695313 37.81250732 4.70390625 37.06251465 5.1953125 36.28979492 C13.11416254 24.02175126 13.11416254 24.02175126 15 10 C13.21257544 7.52842328 12.08140299 7.02037799 9.08203125 6.26953125 C8.00308594 6.11871094 6.92414063 5.96789062 5.8125 5.8125 C4.72582031 5.65394531 3.63914062 5.49539063 2.51953125 5.33203125 C1.68808594 5.22246094 0.85664062 5.11289062 0 5 C0 3.35 0 1.7 0 0 Z " fill="#38413F" transform="translate(957,619)"/>
<path d="M0 0 C7.95998958 7.28949369 11.56492247 17.3500637 12.11964417 27.96716309 C12.20091605 31.50115346 12.21120407 35.03485006 12.20798874 38.56966591 C12.20701392 40.93660183 12.22007311 43.3030955 12.23696899 45.66996765 C12.28298259 52.39233142 12.30787516 59.11464196 12.31445312 65.8371582 C12.31946371 69.96501143 12.34367375 74.09239056 12.37977982 78.22008324 C12.38957298 79.78813012 12.39191236 81.35624219 12.38660812 82.92431068 C12.37954682 85.11192462 12.39679219 87.29811632 12.41943359 89.4855957 C12.42228363 90.72863968 12.42513367 91.97168365 12.42807007 93.25239563 C12.69583351 96.47803564 12.69583351 96.47803564 14.74307251 98.83879089 C16.9675277 100.75176891 16.9675277 100.75176891 20.49609375 100.40625 C23.97793199 99.70938797 23.97793199 99.70938797 25.87109375 97.34375 C26.22171875 96.704375 26.57234375 96.065 26.93359375 95.40625 C29.93359375 96.40625 29.93359375 96.40625 30.875 98.15625 C30.96540056 101.62763148 29.19653021 102.92578445 26.87109375 105.40625 C18.93975989 113.72925467 12.26314471 116.41812337 0.93359375 116.78125 C-6.92857417 116.64671023 -11.34827228 115.12438397 -16.87890625 109.59375 C-19.18608334 106.23186339 -20.62403022 103.20197639 -22.06640625 99.40625 C-22.53949219 100.05851563 -23.01257813 100.71078125 -23.5 101.3828125 C-28.70246326 108.25858266 -34.29499045 114.59704091 -43.06640625 116.40625 C-46.6253651 116.67651764 -50.18575689 116.68337509 -53.75390625 116.71875 C-54.70974609 116.74775391 -55.66558594 116.77675781 -56.65039062 116.80664062 C-66.2622235 116.89181706 -73.42180871 113.91586838 -80.40234375 107.296875 C-85.71958246 101.25569299 -85.71733301 94.02011516 -85.5390625 86.23046875 C-84.4760607 77.62981785 -80.00342586 70.11374409 -73.6484375 64.28125 C-59.06855372 53.69373984 -38.95553141 47.23125633 -21.06640625 47.40625 C-21.11084253 42.30105771 -21.18096786 37.19706908 -21.27392578 32.0925293 C-21.30198362 30.35955434 -21.323273 28.62645503 -21.33740234 26.89331055 C-21.04488506 12.34837228 -21.04488506 12.34837228 -27.51269531 -0.18725586 C-32.39932117 -4.61086547 -37.2339524 -4.99613149 -43.5859375 -4.94921875 C-47.67676552 -4.3629741 -49.3214635 -2.62022534 -52.06640625 0.40625 C-54.16009176 6.68730652 -53.2848461 12.86082644 -51.53125 19.1328125 C-50.44790481 24.43118981 -49.42555824 31.42344451 -52.1171875 36.31640625 C-55.91377639 40.15779265 -59.11505345 40.60593527 -64.31640625 40.71875 C-69.73739534 40.66489912 -73.07973175 40.3929245 -77.06640625 36.40625 C-81.1328467 29.66477763 -80.8142341 23.06532206 -80.06640625 15.40625 C-79.16155053 12.34366142 -77.91926509 9.99118244 -76.06640625 7.40625 C-75.53015625 6.560625 -74.99390625 5.715 -74.44140625 4.84375 C-55.3577735 -14.74208361 -21.52327598 -16.60018261 0 0 Z " fill="#394240" transform="translate(724.06640625,675.59375)"/>
<path d="M0 0 C0.00586624 1.13037689 0.01173248 2.26075378 0.01777649 3.42538452 C0.07512403 14.10632846 0.14794828 24.78707115 0.23571491 35.46780968 C0.28033911 40.95817964 0.31961273 46.44847676 0.34643555 51.93896484 C0.37254785 57.24295639 0.41300617 62.54666642 0.46318626 67.85048294 C0.47980147 69.86851103 0.49134889 71.88658776 0.49761391 73.90467453 C0.50731335 76.74322396 0.53544176 79.58106176 0.56762695 82.41943359 C0.56619186 83.24374878 0.56475677 84.06806396 0.5632782 84.9173584 C0.677539 92.09706692 1.79287826 99.19635887 6.3125 104.9375 C11.05667172 108.57837597 14.7784632 110.55515363 20.91796875 110.28515625 C27.42679756 109.39370315 31.74885956 107.0878002 36 102 C36.49655265 99.30485637 36.68677887 97.23824159 36.64697266 94.55102539 C36.66011505 93.45247978 36.66011505 93.45247978 36.67352295 92.33174133 C36.69546259 89.9197702 36.68098405 87.50964481 36.6640625 85.09765625 C36.66743261 83.41523386 36.67228686 81.73281385 36.67855835 80.05039978 C36.68592255 76.52726014 36.67524072 73.00475518 36.65185547 69.48168945 C36.62338917 64.97435668 36.63975981 60.46851394 36.66971779 55.961236 C36.68782218 52.4875118 36.68201813 49.01413837 36.66907883 45.54040337 C36.66575232 43.87908182 36.66980531 42.21772804 36.68147659 40.55644417 C36.69423568 38.22956688 36.67474158 35.90506995 36.64697266 33.57836914 C36.65709381 32.89713989 36.66721497 32.21591064 36.67764282 31.51403809 C36.55637848 26.00521534 34.75470536 23.74164077 31 20 C28.39606751 18.48260274 28.39606751 18.48260274 25.6875 17.625 C24.80449219 17.30789063 23.92148438 16.99078125 23.01171875 16.6640625 C22.01591797 16.33535156 22.01591797 16.33535156 21 16 C21 14.68 21 13.36 21 12 C22.45792969 11.70609375 22.45792969 11.70609375 23.9453125 11.40625 C33.79472012 9.30588383 43.05438724 6.35117817 52.42236328 2.64257812 C53.30649902 2.30162109 54.19063477 1.96066406 55.1015625 1.609375 C55.87838379 1.29967773 56.65520508 0.98998047 57.45556641 0.67089844 C60.68170968 -0.17974844 63.67607906 -0.04171714 67 0 C67.00586624 1.31687302 67.01173248 2.63374603 67.01777649 3.99052429 C67.07496474 16.39479811 67.14770613 28.79889596 67.23571491 41.20299053 C67.28046129 47.5802198 67.31970818 53.95738454 67.34643555 60.3347168 C67.37242566 66.48805183 67.41279807 72.64113914 67.46318626 78.79432106 C67.47988396 81.14304335 67.49138011 83.49180852 67.49761391 85.84058189 C67.50722318 89.12795417 67.53524548 92.4146885 67.56762695 95.7019043 C67.56619186 96.6751062 67.56475677 97.64830811 67.5632782 98.65100098 C67.63185205 103.56658917 67.75387805 107.03147419 71 111 C74.31695725 113.36925518 78.02209653 113.54101114 82 114 C82.5 116.1875 82.5 116.1875 82 119 C74.61313927 125.44705657 64.83990487 128.35861798 55.20703125 128.21484375 C49.43615216 127.65307676 45.61374075 124.27942984 42 120 C39.44952969 115.82952413 38 112.96297356 38 108 C37.34 108 36.68 108 36 108 C35.731875 108.58007812 35.46375 109.16015625 35.1875 109.7578125 C30.61976507 118.38241727 22.77979651 124.01446991 13.6796875 127.140625 C5.20851251 129.11903105 -5.23139196 129.57500628 -13.046875 125.32421875 C-22.67172898 118.79856775 -27.68146007 111.81948508 -30.384552 100.52630615 C-31.40350916 94.68803075 -31.40633313 88.85868298 -31.38012505 82.95091629 C-31.37086935 80.6712933 -31.38139559 78.39246756 -31.39674377 76.11288452 C-31.43647581 69.64216002 -31.43803761 63.17151004 -31.43579102 56.70068359 C-31.43573984 52.71851567 -31.45492555 48.73678862 -31.48512459 44.75474167 C-31.49589555 42.51772738 -31.48386191 40.28157207 -31.47129822 38.04458618 C-31.4802036 36.66855024 -31.49027833 35.29252119 -31.50170898 33.91650391 C-31.50154282 32.72247955 -31.50137665 31.5284552 -31.50120544 30.29824829 C-32.10636449 26.29667134 -33.47633199 24.13039238 -36 21 C-38.75115981 19.45602123 -38.75115981 19.45602123 -41.75 18.625 C-42.73484375 18.30789063 -43.7196875 17.99078125 -44.734375 17.6640625 C-45.48203125 17.44492187 -46.2296875 17.22578125 -47 17 C-47 15.68 -47 14.36 -47 13 C-46.14921875 12.79246094 -45.2984375 12.58492187 -44.421875 12.37109375 C-32.57220137 9.3582512 -20.49218218 5.88285616 -9.3515625 0.7890625 C-6.19993895 -0.26845902 -3.30358226 -0.04858917 0 0 Z " fill="#39423F" transform="translate(1062,662)"/>
<path d="M0 0 C9.08709233 8.29234663 14.5392099 19.02903217 16.3671875 31.16015625 C16.3671875 35.12015625 16.3671875 39.08015625 16.3671875 43.16015625 C-7.3928125 43.16015625 -31.1528125 43.16015625 -55.6328125 43.16015625 C-52.86187993 69.21458413 -52.86187993 69.21458413 -37.7578125 89.59765625 C-29.95395298 94.87497888 -21.94762342 96.19772593 -12.6328125 95.16015625 C-0.99100892 92.60674952 6.35536338 86.62264548 14.3671875 78.16015625 C15.0271875 78.49015625 15.6871875 78.82015625 16.3671875 79.16015625 C14.6629003 89.89716561 6.32565611 99.13223209 -1.6328125 106.16015625 C-11.80287336 113.50231754 -21.48580108 116.7274965 -33.9453125 116.59765625 C-35.46934692 116.58629639 -35.46934692 116.58629639 -37.02416992 116.57470703 C-44.48377542 116.41089106 -50.89631595 115.55476014 -57.6328125 112.16015625 C-58.50808594 111.72445312 -59.38335937 111.28875 -60.28515625 110.83984375 C-74.65564831 102.93067068 -82.4632108 89.6754697 -86.94140625 74.29296875 C-91.0940865 55.47686955 -90.29974752 34.53019175 -80.3203125 17.71484375 C-71.17622662 3.87171374 -59.52111281 -5.80445723 -43.2578125 -10.21484375 C-27.38092072 -12.96722462 -12.72298016 -10.09910146 0 0 Z " fill="#3A4340" transform="translate(338.6328125,676.83984375)"/>
<path d="M0 0 C24.09 0 48.18 0 73 0 C73 1.65 73 3.3 73 5 C72.00419922 5.16435547 72.00419922 5.16435547 70.98828125 5.33203125 C64.00222558 6.48052793 64.00222558 6.48052793 58 10 C54.84628601 15.2937342 53.87640314 19.603829 53.86628723 25.69311523 C53.86202225 26.85398651 53.85775726 28.01485779 53.85336304 29.21090698 C53.85381622 30.48064362 53.85426941 31.75038025 53.85473633 33.05859375 C53.85174346 34.41228325 53.84834064 35.7659719 53.84455872 37.11965942 C53.83572907 40.79313227 53.83338108 44.46658181 53.83274293 48.14006424 C53.83179295 51.20678548 53.82811376 54.2735013 53.82457083 57.34022045 C53.81643078 64.57414716 53.81398625 71.80806142 53.81469727 79.04199219 C53.81529847 86.50603544 53.80473718 93.97000651 53.7889536 101.43403149 C53.77588444 107.84261764 53.77051308 114.25118017 53.77115268 120.65977955 C53.77140778 124.48731334 53.76854965 128.31478294 53.75797462 132.14230347 C53.74830372 135.74069062 53.74820747 139.33895205 53.75549126 142.9373436 C53.75703768 144.88793291 53.74868396 146.83852219 53.74005127 148.78909302 C53.74424576 149.94996429 53.74844025 151.11083557 53.75276184 152.30688477 C53.75221707 153.31566177 53.75167231 154.32443878 53.75111103 155.36378479 C54.00847822 158.08980075 54.51456881 159.71514434 56 162 C63.82948336 165.91474168 75.54945816 162.80803966 83.42041016 160.19628906 C88.93371728 158.21198845 93.47251808 155.68198831 98 152 C98.68320313 151.48824219 99.36640625 150.97648438 100.0703125 150.44921875 C108.65959494 143.60718578 113.40263124 133.76676036 118 124 C118.66 124.66 119.32 125.32 120 126 C119.86328125 128.30078125 119.86328125 128.30078125 119.3125 131.3125 C119.11398438 132.47136719 118.91546875 133.63023437 118.7109375 134.82421875 C118.59717773 135.4795459 118.48341797 136.13487305 118.36621094 136.81005859 C117.65363944 141.07123615 117.05101858 145.34864982 116.4375 149.625 C116.31093018 150.48262939 116.18436035 151.34025879 116.05395508 152.22387695 C115.14922351 158.49020166 114.57517674 164.67305589 114 171 C76.71 171 39.42 171 1 171 C1 169.68 1 168.36 1 167 C1.74765625 166.84144531 2.4953125 166.68289063 3.265625 166.51953125 C9.30893638 165.1366968 9.30893638 165.1366968 14.5 161.9375 C18.78318345 153.54959908 19.44025518 145.46360555 19.40405273 136.16577148 C19.41434761 134.29795013 19.41434761 134.29795013 19.42485046 132.39239502 C19.43992496 129.00593968 19.44163831 125.62003902 19.43590808 122.23359179 C19.43279902 119.39567485 19.43892732 116.5578068 19.44494683 113.71989685 C19.4589476 107.02163718 19.45746685 100.32350519 19.44604492 93.62524414 C19.43455617 86.73591229 19.44866194 79.8469694 19.4754414 72.95768875 C19.4976491 67.0202129 19.50422476 61.08285871 19.49836498 55.14534432 C19.4950077 51.60886526 19.49732845 48.07263569 19.51461601 44.53619194 C19.53305834 40.59225256 19.51884591 36.64878658 19.50170898 32.70483398 C19.51137695 31.54665665 19.52104492 30.38847931 19.53100586 29.19520569 C19.46937566 22.4059113 18.70168976 16.81835156 15 11 C10.55349726 6.96712542 5.76168656 5.97308484 0 5 C0 3.35 0 1.7 0 0 Z " fill="#38413F" transform="translate(117,619)"/>
<path d="M0 0 C7.96618818 4.48974989 11.95052684 12.00752399 14.875 20.4375 C21.57664457 46.96600175 22.82506747 81.11473799 10.875 106.4375 C7.7160612 110.88481145 5.0152721 113.53083266 -0.125 115.4375 C-6.3888448 116.30949696 -13.03946026 116.6219186 -18.6875 113.4375 C-26.68095542 107.28475499 -29.05415286 97.93118122 -31.125 88.4375 C-31.30522705 87.62240967 -31.4854541 86.80731934 -31.67114258 85.9675293 C-33.33928392 77.39181024 -33.46385779 68.93328536 -33.44067383 60.23071289 C-33.43752711 57.77118987 -33.46100923 55.31288986 -33.48632812 52.85351562 C-33.55160925 36.63049512 -32.72487838 15.08131629 -20.71875 2.73828125 C-14.52870513 -2.31388772 -7.16587687 -3.16663511 0 0 Z " fill="#F9F5EE" transform="translate(1348.125,667.5625)"/>
<path d="M0 0 C11.0982511 9.35202278 15.17346766 23.74999465 16.80810547 37.70385742 C18.43667562 57.19075594 18.69046656 81.08201914 7.0390625 97.81640625 C3.0580036 102.07964748 -1.2148862 103.74498374 -6.9375 104.5625 C-13.43034295 104.1798177 -18.95237262 100.44719459 -23.3125 95.8125 C-31.90267885 84.84277023 -32.35071496 70.8036846 -32.4765625 57.4921875 C-32.48471355 56.75896397 -32.49286461 56.02574043 -32.50126266 55.270298 C-32.54270847 51.39782139 -32.57144215 47.52548119 -32.59033203 43.65283203 C-32.61255252 39.66986027 -32.68152343 35.68909534 -32.76067543 31.70690727 C-32.81306164 28.6252542 -32.82971837 25.54412958 -32.83689499 22.46207047 C-32.84659497 20.99400845 -32.86973445 19.52596755 -32.90697098 18.05834579 C-33.17882575 6.64582479 -33.17882575 6.64582479 -30.24700928 2.55255127 C-28.24389044 0.76630274 -26.31752434 -0.65574703 -24 -2 C-22.7934375 -2.7115625 -22.7934375 -2.7115625 -21.5625 -3.4375 C-13.79353808 -5.14288188 -6.86598131 -4.09744046 0 0 Z " fill="#F8F5EE" transform="translate(1219,678)"/>
<path d="M0 0 C9.86498104 7.0515027 15.52355036 17.06173214 18.5625 28.75 C19.32722347 34.17953664 19.1875 39.70437405 19.1875 45.1875 C-4.5725 44.8575 -28.3325 44.5275 -52.8125 44.1875 C-52.8125 43.8575 -52.8125 43.5275 -52.8125 43.1875 C-39.2825 43.1875 -25.7525 43.1875 -11.8125 43.1875 C-12.65093881 21.37038615 -12.65093881 21.37038615 -21.8125 2.1875 C-23.7405223 0.66872772 -25.70618848 -0.53891629 -27.8125 -1.8125 C-27.8125 -2.4725 -27.8125 -3.1325 -27.8125 -3.8125 C-29.7925 -3.8125 -31.7725 -3.8125 -33.8125 -3.8125 C-33.8125 -4.4725 -33.8125 -5.1325 -33.8125 -5.8125 C-20.52512017 -9.25737625 -11.72255884 -7.30159382 0 0 Z " fill="#38413F" transform="translate(335.8125,674.8125)"/>
<path d="M0 0 C7.67732797 3.98630491 10.39993493 9.4292975 13.16796875 17.28125 C15.94054464 26.34093459 15 32.39287871 15 43 C1.8 43 -11.4 43 -25 43 C-25 29.74007137 -23.78292577 14.53729919 -14.34765625 4.1875 C-9.80769141 0.28024419 -5.92151305 -0.79542713 0 0 Z " fill="#F8F4EE" transform="translate(308,672)"/>
<path d="M0 0 C0.09908128 5.1777593 0.17156806 10.35496347 0.21972656 15.53344727 C0.23980786 17.29396175 0.26707879 19.05440982 0.30175781 20.81469727 C0.35043112 23.34928802 0.37300305 25.88299495 0.390625 28.41796875 C0.41127014 29.20149216 0.43191528 29.98501556 0.45318604 30.7922821 C0.45472335 34.55965615 0.17047374 36.73406715 -1.88305664 39.9375 C-6.50641594 44.44195616 -12.32414171 47.25869727 -18.8125 47.5625 C-22.96297353 47.29165781 -25.17492957 46.15743166 -28 43 C-32.82529537 34.72806507 -33.53135002 24.7565646 -31.421875 15.44921875 C-28.98818671 9.75217571 -24.43679788 6.65554579 -19 4 C-12.57300888 1.52453213 -6.90147604 -0.10210173 0 0 Z " fill="#F8F4EE" transform="translate(703,728)"/>
<path d="M0 0 C0 3 0 3 -1.5 4.6875 C-1.995 5.120625 -2.49 5.55375 -3 6 C-2.34 6.66 -1.68 7.32 -1 8 C-17.83 8 -34.66 8 -52 8 C-52 7.67 -52 7.34 -52 7 C-37.645 6.01 -37.645 6.01 -23 5 C-23 4.67 -23 4.34 -23 4 C-21.75863281 3.96261719 -20.51726563 3.92523437 -19.23828125 3.88671875 C-17.59632489 3.8210405 -15.95439913 3.7545938 -14.3125 3.6875 C-13.08756836 3.65366211 -13.08756836 3.65366211 -11.83789062 3.61914062 C-7.09279093 3.4078204 -3.91286695 2.97250382 0 0 Z " fill="#F7F1EA" transform="translate(932,613)"/>
<path d="M0 0 C0.66 0.66 1.32 1.32 2 2 C0.71451591 3.33929505 -0.57858155 4.67128643 -1.875 6 C-2.59429688 6.7425 -3.31359375 7.485 -4.0546875 8.25 C-6 10 -6 10 -8 10 C-8 25.51 -8 41.02 -8 57 C-8.33 57 -8.66 57 -9 57 C-9.2293108 50.32953437 -9.38625901 43.66009367 -9.49438477 36.98657227 C-9.53948206 34.71958439 -9.60078019 32.45285594 -9.67895508 30.18676758 C-10.34903991 10.2550286 -10.34903991 10.2550286 -6.95654297 5.45654297 C-4.74212984 3.24212984 -2.71721343 1.54087751 0 0 Z " fill="#F2F2EF" transform="translate(564,718)"/>
<path d="M0 0 C1.171875 1.4765625 1.171875 1.4765625 2 4 C1.20631405 6.90820747 0.32313625 9.57334576 -0.75 12.375 C-3.59577592 20.25746223 -5.21920841 27.62668325 -6 36 C-6.33 36 -6.66 36 -7 36 C-7.5554593 28.99504108 -6.69991716 22.56426402 -5.1875 15.75 C-5.02217773 14.99412598 -4.85685547 14.23825195 -4.68652344 13.45947266 C-3.57791699 8.70248624 -2.04732857 4.43490085 0 0 Z " fill="#3E3C3A" transform="translate(587,388)"/>
<path d="M0 0 C0 3 0 3 -1.5 4.6875 C-1.995 5.120625 -2.49 5.55375 -3 6 C-2.34 6.66 -1.68 7.32 -1 8 C-2.98 8 -4.96 8 -7 8 C-7.33 7.34 -7.66 6.68 -8 6 C-10.54941373 5.68758629 -13.00361513 5.48696579 -15.5625 5.375 C-16.62887695 5.31699219 -16.62887695 5.31699219 -17.71679688 5.2578125 C-19.47742425 5.16328217 -21.23867728 5.08054183 -23 5 C-23 4.67 -23 4.34 -23 4 C-21.75863281 3.96261719 -20.51726563 3.92523437 -19.23828125 3.88671875 C-17.59632489 3.8210405 -15.95439913 3.7545938 -14.3125 3.6875 C-13.08756836 3.65366211 -13.08756836 3.65366211 -11.83789062 3.61914062 C-7.09279093 3.4078204 -3.91286695 2.97250382 0 0 Z " fill="#E7E6E0" transform="translate(932,613)"/>
<path d="M0 0 C0.66 0.33 1.32 0.66 2 1 C1.51675181 6.15464734 -1.18610761 9.81550319 -4 14 C-4.33 13.34 -4.66 12.68 -5 12 C-3.88536076 9.21060129 -2.41371466 6.65606996 -1 4 C-3.31 6.31 -5.62 8.62 -8 11 C-8.66 10.67 -9.32 10.34 -10 10 C-6.7 6.7 -3.4 3.4 0 0 Z " fill="#333A37" transform="translate(353,755)"/>
<path d="M0 0 C0.66 0.33 1.32 0.66 2 1 C1.58578031 5.83256305 -0.46413986 7.82679218 -4 11 C-4 10.34 -4 9.68 -4 9 C-4.66 8.67 -5.32 8.34 -6 8 C-5.34 8 -4.68 8 -4 8 C-3.8453125 7.13375 -3.8453125 7.13375 -3.6875 6.25 C-2.90207202 3.67950842 -1.69495803 2.06342716 0 0 Z " fill="#2F3836" transform="translate(931,701)"/>
<path d="M0 0 C1.1875 1.5 1.1875 1.5 2 4 C1.27101296 6.78824238 0.1843275 9.37665092 -1 12 C-1.66 12 -2.32 12 -3 12 C-3.33 12.99 -3.66 13.98 -4 15 C-3.50341703 9.33895411 -2.45489316 5.12325529 0 0 Z " fill="#343F3E" transform="translate(587,388)"/>
<path d="M0 0 C0.33 0.99 0.66 1.98 1 3 C-2.63 6.3 -6.26 9.6 -10 13 C-10.66 12.67 -11.32 12.34 -12 12 C-8.04 8.04 -4.08 4.08 0 0 Z " fill="#473F3D" transform="translate(804,605)"/>
<path d="M0 0 C0.66 0.66 1.32 1.32 2 2 C-0.64 4.64 -3.28 7.28 -6 10 C-6.99 9.67 -7.98 9.34 -9 9 C-6.03 6.03 -3.06 3.06 0 0 Z " fill="#EAE8E4" transform="translate(564,718)"/>
<path d="M0 0 C2 3 2 3 1.75 6 C1 9 1 9 -1 12 C-1.66 12 -2.32 12 -3 12 C-2.01 8.04 -1.02 4.08 0 0 Z " fill="#EDEBE6" transform="translate(962,502)"/>
<path d="M0 0 C0.66 0.66 1.32 1.32 2 2 C1 3 1 3 -0.84765625 3.09765625 C-2.8984375 3.06510417 -4.94921875 3.03255208 -7 3 C-7.33 2.34 -7.66 1.68 -8 1 C-5.23749964 -0.38125018 -3.05268901 -0.19079306 0 0 Z " fill="#F0EFEA" transform="translate(441,679)"/>
<path d="M0 0 C2.475 0.495 2.475 0.495 5 1 C5 2.32 5 3.64 5 5 C3.35 4.67 1.7 4.34 0 4 C0 2.68 0 1.36 0 0 Z " fill="#4C5350" transform="translate(1137,616)"/>
<path d="M0 0 C0.66 0.99 1.32 1.98 2 3 C1.04882866 4.1725131 0.08882991 5.33787015 -0.875 6.5 C-1.40867187 7.1496875 -1.94234375 7.799375 -2.4921875 8.46875 C-2.98976563 8.9740625 -3.48734375 9.479375 -4 10 C-4.66 10 -5.32 10 -6 10 C-4.34832443 6.4213696 -2.21713508 3.25179812 0 0 Z " fill="#D82423" transform="translate(602,369)"/>
<path d="M0 0 C0.66 0.66 1.32 1.32 2 2 C0.35 3.65 -1.3 5.3 -3 7 C-3.99 6.67 -4.98 6.34 -6 6 C-4.02 4.02 -2.04 2.04 0 0 Z " fill="#444B48" transform="translate(574,701)"/>
<path d="M0 0 C0 0.66 0 1.32 0 2 C-3.98196457 3.05404945 -6.98195309 2.84098656 -11 2 C-11 1.67 -11 1.34 -11 1 C-7.27569643 0.30710631 -3.78916254 -0.11144596 0 0 Z " fill="#F1EFE9" transform="translate(129,782)"/>
<path d="M0 0 C-1.39332574 3.36720387 -2.9789286 4.9859524 -6 7 C-6 4 -6 4 -4.125 1.8125 C-2 0 -2 0 0 0 Z " fill="#F1EFEB" transform="translate(427,683)"/>
<path d="M0 0 C0.99 0.33 1.98 0.66 3 1 C1.02 2.98 -0.96 4.96 -3 7 C-3.66 6.67 -4.32 6.34 -5 6 C-3.35 4.02 -1.7 2.04 0 0 Z " fill="#EDECE8" transform="translate(978,646)"/>
<path d="M0 0 C0.99 0.33 1.98 0.66 3 1 C2.67 5.29 2.34 9.58 2 14 C1.67 14 1.34 14 1 14 C0.67 9.38 0.34 4.76 0 0 Z " fill="#F0EDE6" transform="translate(671,676)"/>
<path d="M0 0 C0.99 0.33 1.98 0.66 3 1 C1.37660195 2.70884005 -0.29319053 4.37446717 -2 6 C-2.66 6 -3.32 6 -4 6 C-2.84826645 3.53199953 -1.95216435 1.95216435 0 0 Z " fill="#414845" transform="translate(269,681)"/>
<path d="M0 0 C-1.37154504 2.95409701 -2.98863724 5.44008376 -5 8 C-5.75 6.25 -5.75 6.25 -6 4 C-2.77777778 0 -2.77777778 0 0 0 Z " fill="#EFEDE8" transform="translate(1194,678)"/>
<path d="M0 0 C0.99 0.33 1.98 0.66 3 1 C1.37660195 2.70884005 -0.29319053 4.37446717 -2 6 C-2.66 6 -3.32 6 -4 6 C-2.84826645 3.53199953 -1.95216435 1.95216435 0 0 Z " fill="#ECEBE6" transform="translate(1329,669)"/>
<path d="M0 0 C-1.45255699 3.82946843 -3.42895561 5.12050295 -7 7 C-3.86206897 0 -3.86206897 0 0 0 Z " fill="#2B3330" transform="translate(1196,668)"/>
<path d="M0 0 C3.3 0 6.6 0 10 0 C10 0.33 10 0.66 10 1 C6.37 1.66 2.74 2.32 -1 3 C-0.67 2.01 -0.34 1.02 0 0 Z " fill="#EDEBE7" transform="translate(290,666)"/>
<path d="M0 0 C-0.66 0.66 -1.32 1.32 -2 2 C-5.625 1.625 -5.625 1.625 -9 1 C-9 0.67 -9 0.34 -9 0 C-3.375 -1.125 -3.375 -1.125 0 0 Z M-8 3 C-6 4 -6 4 -6 4 Z " fill="#474D4A" transform="translate(1151,615)"/>
<path d="M0 0 C0.66 0.33 1.32 0.66 2 1 C0.125 5.75 0.125 5.75 -1 8 C-1.66 8 -2.32 8 -3 8 C-1.125 2.25 -1.125 2.25 0 0 Z " fill="#EAE8E3" transform="translate(952,530)"/>
</svg>
